<?xml version="1.0" encoding="UTF-8" standalone="no"?>
<svg
   xmlns:dc="http://purl.org/dc/elements/1.1/"
   xmlns:cc="http://creativecommons.org/ns#"
   xmlns:rdf="http://www.w3.org/1999/02/22-rdf-syntax-ns#"
   xmlns:svg="http://www.w3.org/2000/svg"
   xmlns="http://www.w3.org/2000/svg"
   xmlns:sodipodi="http://sodipodi.sourceforge.net/DTD/sodipodi-0.dtd"
   xmlns:inkscape="http://www.inkscape.org/namespaces/inkscape"
   inkscape:version="1.0 (4035a4fb49, 2020-05-01)"
   sodipodi:docname="ín.svg"
   id="svg8"
   version="1.1"
   viewBox="0 0 37.855564 53.149296"
   height="53.149296mm"
   width="37.855564mm">
  <defs
     id="defs2" />
  <sodipodi:namedview
     inkscape:window-maximized="1"
     inkscape:window-y="305"
     inkscape:window-x="-8"
     inkscape:window-height="697"
     inkscape:window-width="1366"
     inkscape:guide-bbox="true"
     showguides="true"
     showgrid="false"
     inkscape:document-rotation="0"
     inkscape:current-layer="layer1"
     inkscape:document-units="mm"
     inkscape:cy="78.904551"
     inkscape:cx="44.461765"
     inkscape:zoom="1.4"
     inkscape:pageshadow="2"
     inkscape:pageopacity="0.0"
     borderopacity="1.0"
     bordercolor="#666666"
     pagecolor="#ffffff"
     id="base" />
  <metadata
     id="metadata5">
    <rdf:RDF>
      <cc:Work
         rdf:about="">
        <dc:format>image/svg+xml</dc:format>
        <dc:type
           rdf:resource="http://purl.org/dc/dcmitype/StillImage" />
      </cc:Work>
    </rdf:RDF>
  </metadata>
  <g
     transform="translate(-93.674276,-168.00876)"
     id="layer1"
     inkscape:groupmode="layer"
     inkscape:label="Layer 1">
    <ellipse
       inkscape:label="#sombraprojetada"
       ry="8.4118872"
       rx="18.927782"
       cy="212.74617"
       cx="112.60206"
       id="sombraprojetada"
       style="opacity:0.2;fill:#000000;stroke-width:0.1;paint-order:markers fill stroke" />
    <path
       id="CorPin"
       style="fill:#e6e6e6;stroke-width:0.1;paint-order:markers fill stroke;fill-opacity:1"
       d="m 112.79621,168.00901 a 6.2206988,6.2206988 0 0 0 -6.22081,6.22081 6.2206988,6.2206988 0 0 0 1.08107,3.50417 7.3062694,3.3307993 0 0 0 -2.15904,2.22519 h -0.008 v 0.001 h -5.2e-4 v 0.14056 0.0176 1.99729 5.3e-4 0.13952 10e-4 h 0.008 a 7.3062694,3.3307993 0 0 0 0.007,0.0594 7.3062694,3.3307993 0 0 0 0,0.001 7.3062694,3.3307993 0 0 0 0.009,0.0594 7.3062694,3.3307993 0 0 0 0,0.001 7.3062694,3.3307993 0 0 0 0.0114,0.0589 7.3062694,3.3307993 0 0 0 0,10e-4 7.3062694,3.3307993 0 0 0 0.0139,0.0594 7.3062694,3.3307993 0 0 0 0,0.001 7.3062694,3.3307993 0 0 0 0.0165,0.0589 7.3062694,3.3307993 0 0 0 0,0.001 7.3062694,3.3307993 0 0 0 0.0186,0.0589 7.3062694,3.3307993 0 0 0 0.16227,0.35501 7.3062694,3.3307993 0 0 0 0,5.3e-4 7.3062694,3.3307993 0 0 0 0.0729,0.11576 7.3062694,3.3307993 0 0 0 0,5.3e-4 7.3062694,3.3307993 0 0 0 0.22221,0.28422 7.3062694,3.3307993 0 0 0 0,5.3e-4 7.3062694,3.3307993 0 0 0 0.10439,0.11058 7.3062694,3.3307993 0 0 0 1.56269,1.01803 l -4.64571,14.7252 a 18.174328,8.2853553 0 0 0 -8.414475,6.64455 h -0.01654 v 0.34934 5.01416 0.34933 h 0.01654 a 18.174328,8.2853553 0 0 0 18.157545,7.93595 18.174328,8.2853553 0 0 0 18.15807,-7.93595 h 0.016 v -0.30334 a 18.174328,8.2853553 0 0 0 5.3e-4,-0.046 18.174328,8.2853553 0 0 0 -5.3e-4,-0.032 v -4.94802 a 18.174328,8.2853553 0 0 0 5.3e-4,-0.0341 18.174328,8.2853553 0 0 0 -5.3e-4,-0.032 v -0.0315 -0.28578 h -0.016 a 18.174328,8.2853553 0 0 0 -8.43876,-6.65127 l -4.64106,-14.70918 a 7.3062694,3.3307993 0 0 0 2.14147,-1.88205 7.3062694,3.3307993 0 0 0 0.0191,-0.0589 7.3062694,3.3307993 0 0 0 0,-0.001 7.3062694,3.3307993 0 0 0 0.017,-0.0589 7.3062694,3.3307993 0 0 0 0,-0.001 7.3062694,3.3307993 0 0 0 0.0145,-0.0589 7.3062694,3.3307993 0 0 0 0,-0.001 7.3062694,3.3307993 0 0 0 0.0124,-0.0594 7.3062694,3.3307993 0 0 0 0,-10e-4 7.3062694,3.3307993 0 0 0 0.009,-0.0589 7.3062694,3.3307993 0 0 0 0,-0.001 7.3062694,3.3307993 0 0 0 0.008,-0.0594 7.3062694,3.3307993 0 0 0 0,-0.001 7.3062694,3.3307993 0 0 0 0.001,-0.0119 h 0.006 v -0.001 -0.12093 a 7.3062694,3.3307993 0 0 0 0,-0.001 7.3062694,3.3307993 0 0 0 0,-0.0176 7.3062694,3.3307993 0 0 0 0,-10e-4 7.3062694,3.3307993 0 0 0 0,-0.0119 v -10e-4 -1.98799 a 7.3062694,3.3307993 0 0 0 0,-0.0129 7.3062694,3.3307993 0 0 0 0,-0.0129 v -0.12765 h -0.001 v -0.002 h -0.005 a 7.3062694,3.3307993 0 0 0 -2.1611,-2.22519 6.2206988,6.2206988 0 0 0 1.08107,-3.50418 6.2206988,6.2206988 0 0 0 -6.22029,-6.22081 z"
       inkscape:label="#CorPin" />
    <path
       id="Sombra"
       style="opacity:0.3;fill:#000000;stroke-width:0.1;paint-order:markers fill stroke"
       d="m 109.94212,168.82859 a 6.2206988,6.2206988 0 0 0 -3.31091,5.49786 6.2206988,6.2206988 0 0 0 6.22029,6.22081 6.2206988,6.2206988 0 0 0 4.30671,-1.7322 6.2206988,6.2206988 0 0 1 -2.9099,0.72347 6.2206988,6.2206988 0 0 1 -6.22081,-6.2208 6.2206988,6.2206988 0 0 1 1.91462,-4.48914 z m 3.53776,7.95714 a 7.3062694,3.3307996 0 0 1 0.0656,0.003 7.3062694,3.3307993 0 0 0 -0.0656,-0.003 z m 0.41858,0.0222 a 7.3062694,3.3307996 0 0 1 0.0641,0.005 7.3062694,3.3307993 0 0 0 -0.0641,-0.005 z m 0.40256,0.0336 a 7.3062694,3.3307996 0 0 1 0.0744,0.008 7.3062694,3.3307993 0 0 0 -0.0744,-0.008 z m -3.34139,0.0341 a 7.3062694,3.3307993 0 0 0 -0.1199,0.015 7.3062694,3.3307996 0 0 1 0.1199,-0.015 z m 6.55102,0.68213 a 7.3062694,3.3307996 0 0 1 0.0615,0.0243 7.3062694,3.3307993 0 0 0 -0.0615,-0.0243 z m -12.02614,2.40192 v 0.14056 a 7.3062694,3.3307996 0 0 1 0.008,-0.14056 z m 14.60582,0 a 7.3062694,3.3307996 0 0 1 0.006,0.12092 v -0.12092 z m 0.006,0.15451 a 7.3062694,3.3307996 0 0 1 -7.30653,3.31711 7.3062694,3.3307996 0 0 1 -7.30601,-3.2985 v 1.98334 0.14056 h 0.008 a 7.3062694,3.3307993 0 0 0 2.20142,2.24586 l -5.89525,18.68567 a 11.541455,5.2615459 0 0 0 -0.5271,1.57149 11.541455,5.2615459 0 0 0 0.003,0.0915 l -0.046,0.14521 h 0.0548 l -0.046,0.14522 h 0.0553 a 11.541456,5.2615459 0 0 0 11.52953,5.02501 11.541456,5.2615459 0 0 0 11.54142,-5.26169 11.541456,5.2615459 0 0 0 -0.015,-0.26355 11.541456,5.2615459 0 0 1 -10.94455,4.98936 c -3.52999,-2.56361 -5.72954,-5.33107 -6.18773,-6.7629 -0.60818,-1.90053 2.10991,-13.12336 3.23442,-17.59582 a 7.3062694,3.3307993 0 0 1 -0.3731,-0.0631 7.3062694,3.3307993 0 0 1 -0.24443,-0.047 7.3062694,3.3307993 0 0 1 -0.33693,-0.0729 7.3062694,3.3307993 0 0 0 0.33693,0.0729 7.3062694,3.3307993 0 0 0 0.24443,0.047 7.3062694,3.3307993 0 0 0 2.71404,0.23771 7.3062694,3.3307993 0 0 0 7.29982,-3.18998 h 0.006 v -0.12196 a 7.3062694,3.3307993 0 0 0 0,-0.0186 7.3062694,3.3307993 0 0 0 0,-0.0129 z m -5.59191,17.85938 a 18.174328,8.2853553 0 0 1 0.16537,0.007 18.174328,8.2853553 0 0 0 -0.16537,-0.007 z m 1.04335,0.0589 a 18.174328,8.2853553 0 0 1 0.15813,0.0114 18.174328,8.2853553 0 0 0 -0.15813,-0.0114 z m 1.00149,0.0832 a 18.174328,8.2853553 0 0 1 0.18397,0.0181 18.174328,8.2853553 0 0 0 -0.18397,-0.0181 z m 7.98143,1.7818 a 18.174328,8.2853553 0 0 1 0.15554,0.0605 18.174328,8.2853553 0 0 0 -0.15554,-0.0605 z m -29.914456,5.97483 v 0.34933 a 18.174328,8.2853553 0 0 1 0.01654,-0.34933 z m 36.332146,0 a 18.174328,8.2853553 0 0 1 0.016,0.28577 v -0.28577 z m 0.016,0.38344 a 18.174328,8.2853553 0 0 1 -18.17408,8.25117 18.174328,8.2853553 0 0 1 -18.174083,-8.23928 v 4.96817 0.34933 h 0.01654 a 18.174328,8.2853553 0 0 0 18.157543,7.93595 18.174328,8.2853553 0 0 0 18.15806,-7.93595 h 0.016 v -0.30334 a 18.174328,8.2853553 0 0 0 5.3e-4,-0.046 18.174328,8.2853553 0 0 0 -5.3e-4,-0.032 z"
       inkscape:label="#Sombra" />
  </g>
</svg>
