<?xml version="1.0" encoding="UTF-8" standalone="no"?>
<svg
   xmlns:dc="http://purl.org/dc/elements/1.1/"
   xmlns:cc="http://creativecommons.org/ns#"
   xmlns:rdf="http://www.w3.org/1999/02/22-rdf-syntax-ns#"
   xmlns:svg="http://www.w3.org/2000/svg"
   xmlns="http://www.w3.org/2000/svg"
   xmlns:sodipodi="http://sodipodi.sourceforge.net/DTD/sodipodi-0.dtd"
   xmlns:inkscape="http://www.inkscape.org/namespaces/inkscape"
   id="sv"
   width="64.238724"
   height="104.34196"
   viewBox="0 0 64.238724 104.34196"
   version="1.1"
   sodipodi:docname="roullete_pin.svg"
   inkscape:version="1.0 (4035a4fb49, 2020-05-01)">
  <metadata
     id="metadata13">
    <rdf:RDF>
      <cc:Work
         rdf:about="">
        <dc:format>image/svg+xml</dc:format>
        <dc:type
           rdf:resource="http://purl.org/dc/dcmitype/StillImage" />
        <dc:title></dc:title>
      </cc:Work>
    </rdf:RDF>
  </metadata>
  <defs
     id="defs11" />
  <sodipodi:namedview
     inkscape:document-rotation="0"
     pagecolor="#ffffff"
     bordercolor="#666666"
     borderopacity="1"
     objecttolerance="10"
     gridtolerance="10"
     guidetolerance="10"
     inkscape:pageopacity="0"
     inkscape:pageshadow="2"
     inkscape:window-width="1536"
     inkscape:window-height="793"
     id="namedview9"
     showgrid="false"
     showguides="true"
     inkscape:guide-bbox="true"
     inkscape:zoom="3.7476659"
     inkscape:cx="-22.314487"
     inkscape:cy="42.448537"
     inkscape:window-x="1358"
     inkscape:window-y="-8"
     inkscape:window-maximized="1"
     inkscape:current-layer="sv" />
  <g
     id="g281"
     transform="translate(-260.39363,5.0775954)">
    <path
       id="path23-9-5-2"
       style="fill:#784421;stroke:none;stroke-width:0.377954;paint-order:markers fill stroke"
       d="m 292.33631,-5.0775954 -10.685,27.4052264 c -9.90812,4.632916 -16.23941,14.581769 -16.24024,25.519531 2e-5,15.55997 12.61386,28.17381 28.17383,28.17383 15.55997,-1e-5 28.17382,-12.61386 28.17383,-28.17383 -4.7e-4,-10.937313 -6.33093,-20.886047 -16.23828,-25.519531 z"
       sodipodi:nodetypes="cccsccc" />
    <path
       d="M 292.33631,-5.0775954 281.25039,23.386563 A 26.172606,26.172606 0 0 0 266.16373,47.093389 26.172606,26.172606 0 0 0 292.33631,73.265972 26.172606,26.172606 0 0 0 318.5089,47.093389 26.172606,26.172606 0 0 0 303.42406,23.386563 Z"
       style="fill:#a05a2c;stroke:none;stroke-width:0.377954;paint-order:markers fill stroke"
       id="path23-9-5-7-0" />
  </g>
</svg>
