<?xml version="1.0" encoding="UTF-8" standalone="no"?>
<svg
   xmlns:dc="http://purl.org/dc/elements/1.1/"
   xmlns:cc="http://creativecommons.org/ns#"
   xmlns:rdf="http://www.w3.org/1999/02/22-rdf-syntax-ns#"
   xmlns:svg="http://www.w3.org/2000/svg"
   xmlns="http://www.w3.org/2000/svg"
   xmlns:sodipodi="http://sodipodi.sourceforge.net/DTD/sodipodi-0.dtd"
   xmlns:inkscape="http://www.inkscape.org/namespaces/inkscape"
   inkscape:version="1.0 (4035a4fb49, 2020-05-01)"
   sodipodi:docname="roulette.svg"
   version="1.1"
   viewBox="0 0 200 200"
   height="200"
   width="200"
   id="sv">
  <metadata
     id="metadata540">
    <rdf:RDF>
      <cc:Work
         rdf:about="">
        <dc:format>image/svg+xml</dc:format>
        <dc:type
           rdf:resource="http://purl.org/dc/dcmitype/StillImage" />
      </cc:Work>
    </rdf:RDF>
  </metadata>
  <defs
     id="defs538" />
  <sodipodi:namedview
     inkscape:current-layer="g548"
     inkscape:window-maximized="1"
     inkscape:window-y="-8"
     inkscape:window-x="1358"
     inkscape:cy="133.08025"
     inkscape:cx="124.09667"
     inkscape:zoom="1.873833"
     showgrid="false"
     id="namedview536"
     inkscape:window-height="793"
     inkscape:window-width="1536"
     inkscape:pageshadow="2"
     inkscape:pageopacity="0"
     guidetolerance="10"
     gridtolerance="10"
     objecttolerance="10"
     borderopacity="1"
     bordercolor="#666666"
     pagecolor="#ffffff" />
  <g
     transform="rotate(-30,100,100)"
     id="g548">
    <path
       style="fill:#ffc107;fill-opacity:1;stroke-width:1.00001"
       id="0"
       fill="#198754"
       d="M 100.00053,8.5332951e-4 A 100.00191,99.99997 45.848089 0 1 186.60259,50.000191 l -86.60164,50.001699 z" />
    <path
       style="fill:#0d6efd;fill-opacity:1;stroke-width:1.00001"
       id="1"
       fill="#ffc107"
       d="m 186.60259,50.000191 a 100.00191,99.99997 45.848089 0 1 0.001,100.003699 l -86.60307,-50.002 z" />
    <path
       style="fill:#343a40;fill-opacity:1;stroke-width:1.00001"
       id="2"
       fill="#dc3545"
       d="m 186.60404,150.00448 a 100.00191,99.99997 45.848089 0 1 -86.59506,50.0004 l -0.008,-100.00299 z" />
    <path
       style="fill:#dc3545;fill-opacity:1;stroke-width:1.00001"
       id="3"
       fill="#6f24a8"
       d="M 100.00898,200.00488 A 100.00191,99.99997 45.848089 0 1 13.405089,150.00871 l 86.595861,-50.00682 z" />
    <path
       style="fill:#6f24a8;fill-opacity:1;stroke-width:1.00001"
       id="4"
       fill="#0d6efd"
       d="M 13.405089,150.00871 A 100.00191,99.99997 45.848089 0 1 13.389331,50.014082 L 100.00095,100.00189 Z" />
    <path
       style="fill:#198754;fill-opacity:1;stroke-width:1.00001"
       id="5"
       fill="#212529"
       d="M 13.389331,50.014082 A 100.00191,99.99997 45.848089 0 1 99.984159,-0.00102271 L 100.00095,100.00189 Z" />
  </g>
</svg>
